<svg width="55" height="50" viewBox="0 0 55 50" fill="none" xmlns="http://www.w3.org/2000/svg">
<path d="M48.5547 3.90625H45.9766V0H41.6797V3.90625H13.3203V0H9.02344V3.90625H6.44531C2.89137 3.90625 0 6.53477 0 9.76562V44.1406C0 47.3715 2.89137 50 6.44531 50H48.5547C52.1086 50 55 47.3715 55 44.1406V9.76562C55 6.53477 52.1086 3.90625 48.5547 3.90625ZM50.7031 44.1406C50.7031 45.2176 49.7393 46.0938 48.5547 46.0938H6.44531C5.26066 46.0938 4.29688 45.2176 4.29688 44.1406V18.3594H50.7031V44.1406ZM50.7031 14.4531H4.29688V9.76562C4.29688 8.68867 5.26066 7.8125 6.44531 7.8125H9.02344V11.7188H13.3203V7.8125H41.6797V11.7188H45.9766V7.8125H48.5547C49.7393 7.8125 50.7031 8.68867 50.7031 9.76562V14.4531Z" fill="#2DA0A6"/>
<path d="M12.4609 22.4609H8.16406V26.3672H12.4609V22.4609Z" fill="#2DA0A6"/>
<path d="M21.0547 22.4609H16.7578V26.3672H21.0547V22.4609Z" fill="#2DA0A6"/>
<path d="M29.6484 22.4609H25.3516V26.3672H29.6484V22.4609Z" fill="#2DA0A6"/>
<path d="M38.2422 22.4609H33.9453V26.3672H38.2422V22.4609Z" fill="#2DA0A6"/>
<path d="M46.8359 22.4609H42.5391V26.3672H46.8359V22.4609Z" fill="#2DA0A6"/>
<path d="M12.4609 30.2734H8.16406V34.1797H12.4609V30.2734Z" fill="#2DA0A6"/>
<path d="M21.0547 30.2734H16.7578V34.1797H21.0547V30.2734Z" fill="#2DA0A6"/>
<path d="M29.6484 30.2734H25.3516V34.1797H29.6484V30.2734Z" fill="#2DA0A6"/>
<path d="M38.2422 30.2734H33.9453V34.1797H38.2422V30.2734Z" fill="#2DA0A6"/>
<path d="M12.4609 38.0859H8.16406V41.9922H12.4609V38.0859Z" fill="#2DA0A6"/>
<path d="M21.0547 38.0859H16.7578V41.9922H21.0547V38.0859Z" fill="#2DA0A6"/>
<path d="M29.6484 38.0859H25.3516V41.9922H29.6484V38.0859Z" fill="#2DA0A6"/>
<path d="M38.2422 38.0859H33.9453V41.9922H38.2422V38.0859Z" fill="#2DA0A6"/>
<path d="M46.8359 30.2734H42.5391V34.1797H46.8359V30.2734Z" fill="#2DA0A6"/>
</svg>
