<svg width="55" height="62" viewBox="0 0 55 62" fill="none" xmlns="http://www.w3.org/2000/svg">
<path d="M54.3894 33.6239H54.1101C53.7357 31.2733 52.9464 29.2728 52.6221 28.819C52.3261 28.4046 51.9004 28.1338 51.4326 28.0639L40.0919 25.7473C40.0919 25.7473 33.6932 18.8587 29.8983 18.8587L17.1104 18.857C14.631 18.857 12.559 20.9867 10.1597 23.4526C9.02922 24.6145 7.78099 25.8933 6.40429 27.0306L1.27741 27.7992C0.536734 28.0656 0 28.847 0 29.7703V36.3918C0 37.5346 0.82177 38.4611 1.83552 38.4611H6.74587C7.66534 41.1943 10.0112 43.1431 12.7542 43.1431C15.4974 43.1431 17.8433 41.1946 18.7627 38.4611H36.452C37.3717 41.1943 39.7173 43.1431 42.4606 43.1431C45.2036 43.1431 47.5495 41.1946 48.4689 38.4611L54.3894 38.4572C54.7269 38.4572 55 38.149 55 37.7689V34.3126C55 33.932 54.7269 33.6239 54.3894 33.6239ZM12.7542 38.6597C11.4048 38.6597 10.3068 37.4221 10.3068 35.9007C10.3068 34.3794 11.4048 33.1417 12.7542 33.1417C14.1038 33.1417 15.2017 34.3794 15.2017 35.9007C15.2017 37.4221 14.1038 38.6597 12.7542 38.6597ZM42.4607 38.6597C41.1111 38.6597 40.0132 37.4221 40.0132 35.9007C40.0132 34.3794 41.1111 33.1417 42.4607 33.1417C43.8103 33.1417 44.9082 34.3794 44.9082 35.9007C44.9082 37.4221 43.8102 38.6597 42.4607 38.6597Z" fill="#2DA0A6"/>
</svg>
