<svg width="50" height="50" viewBox="0 0 50 50" fill="none" xmlns="http://www.w3.org/2000/svg">
<path d="M42.6776 7.32236C37.9558 2.60049 31.6777 0 25 0C18.3223 0 12.0442 2.60059 7.32236 7.32236C2.60049 12.0441 0 18.3223 0 25C0 31.6777 2.60049 37.9558 7.32236 42.6776C12.0441 47.3995 18.3223 50 25 50C31.6777 50 37.9558 47.3995 42.6776 42.6776C47.3995 37.9558 50 31.6777 50 25C50 18.3223 47.3995 12.0441 42.6776 7.32236ZM25 45.9605C13.4424 45.9605 4.03945 36.5576 4.03945 25C4.03945 13.4424 13.4424 4.03945 25 4.03945C36.5576 4.03945 45.9605 13.4424 45.9605 25C45.9605 36.5576 36.5576 45.9605 25 45.9605Z" fill="#2DA0A6"/>
<path d="M33.3224 30.4658L27.0198 24.1634V11.2118C27.0198 10.0964 26.1156 9.19208 25.0001 9.19208C23.8847 9.19208 22.9804 10.0964 22.9804 11.2118V25C22.9804 25.5357 23.1932 26.0494 23.572 26.4282L30.4659 33.3223C30.8602 33.7167 31.3772 33.9139 31.8941 33.9139C32.411 33.9139 32.9279 33.7167 33.3224 33.3223C34.111 32.5334 34.111 31.2546 33.3224 30.4658Z" fill="#2DA0A6"/>
</svg>
