<svg width="40" height="40" viewBox="0 0 40 40" fill="none" xmlns="http://www.w3.org/2000/svg">
<path d="M2.72764 33.6358H9.09139V39.091C9.09139 39.3565 9.17631 39.5738 9.34717 39.7436C9.51756 39.9145 9.73539 40 10.0007 40H14.7448C14.991 40 15.2041 39.9145 15.384 39.7436C15.564 39.5738 15.6537 39.3564 15.6537 39.091V33.6358H30.0002C30.265 33.6358 30.4829 33.5514 30.6537 33.3805C30.8246 33.2097 30.9095 32.9923 30.9095 32.7268V29.0903C30.9095 28.8265 30.8246 28.6076 30.6537 28.4378C30.4834 28.2668 30.265 28.1814 30.0002 28.1814H15.6532V24.829H25.3123C29.1 24.829 32.1914 23.6748 34.5879 21.3632C36.9834 19.0541 38.1818 16.0712 38.1818 12.4145C38.1818 8.76017 36.9834 5.77723 34.5879 3.46573C32.1918 1.1565 29.0999 0 25.3123 0H10.0003C9.73484 0 9.51748 0.0853905 9.3467 0.255309C9.17631 0.426168 9.09092 0.644937 9.09092 0.908872V18.7786H2.72764C2.46229 18.7786 2.24486 18.8684 2.07408 19.0483C1.90377 19.2282 1.8183 19.4413 1.8183 19.6874V23.9199C1.8183 24.1854 1.90322 24.4028 2.07408 24.5736C2.24494 24.7445 2.46182 24.8289 2.72764 24.8289H9.09139V28.1813H2.72764C2.46229 28.1813 2.24486 28.2668 2.07408 28.4377C1.90377 28.6075 1.8183 28.8259 1.8183 29.0902V32.7268C1.8183 32.9922 1.90322 33.2096 2.07408 33.3804C2.24486 33.5514 2.46222 33.6358 2.72764 33.6358ZM15.6532 6.05175H24.7441C26.7515 6.05175 28.3705 6.63866 29.602 7.81288C30.8328 8.98717 31.4485 10.5218 31.4485 12.4149C31.4485 14.3091 30.8328 15.8441 29.602 17.017C28.3705 18.1923 26.7514 18.7792 24.7441 18.7792H15.6532V6.05175Z" fill="#2DA0A6"/>
</svg>
