<?xml version="1.0" standalone="no"?>
<!DOCTYPE svg PUBLIC "-//W3C//DTD SVG 20010904//EN"
 "http://www.w3.org/TR/2001/REC-SVG-20010904/DTD/svg10.dtd">
<svg version="1.0" xmlns="http://www.w3.org/2000/svg"
 width="512.000000pt" height="512.000000pt" viewBox="0 0 512.000000 512.000000"
 preserveAspectRatio="xMidYMid meet">
<metadata>
Created by potrace 1.11, written by Peter Selinger 2001-2013
</metadata>
<g transform="translate(0.000000,512.000000) scale(0.100000,-0.100000)"
fill="#000000" stroke="none">
<path d="M1464 4310 c-203 -41 -364 -186 -431 -385 -11 -33 -69 -209 -129
-392 -107 -328 -108 -331 -132 -322 -13 5 -131 9 -263 9 -268 0 -294 -5 -329
-62 -16 -26 -20 -50 -20 -118 0 -129 34 -170 150 -185 65 -8 130 -21 137 -28
2 -3 -3 -19 -11 -35 -38 -74 -59 -184 -71 -378 -3 -50 -8 -102 -10 -115 -2
-13 -6 -64 -10 -114 -9 -125 -13 -163 -31 -345 -2 -19 -4 -277 -4 -572 -1
-510 0 -540 18 -580 25 -56 67 -94 128 -117 42 -15 78 -18 259 -16 198 1 213
2 254 24 51 26 72 49 103 106 19 36 21 57 22 202 1 90 3 164 6 164 3 1 659 2
1459 3 986 1 1455 -2 1457 -9 3 -6 6 -82 7 -171 3 -153 4 -162 29 -205 30 -50
84 -93 138 -106 51 -14 439 -9 473 5 52 22 96 63 122 115 l26 52 -4 565 c-3
311 -7 581 -10 600 -3 19 -8 73 -11 120 -4 47 -9 96 -11 110 -2 14 -7 63 -10
110 -3 47 -8 105 -11 130 -2 25 -6 77 -8 115 -7 110 -16 164 -43 240 -39 111
-40 115 -9 116 14 1 29 2 34 3 4 2 34 6 67 10 127 17 155 49 157 183 1 95 -5
114 -47 153 l-27 25 -281 2 -281 1 -94 279 c-51 153 -95 285 -97 293 -45 179
-85 264 -160 348 -82 90 -182 146 -309 174 -35 8 -373 12 -1082 13 -912 1
-1041 0 -1110 -15z m2298 -449 c21 -27 47 -80 63 -126 14 -44 53 -150 85 -236
57 -150 110 -341 110 -390 -1 -58 -70 -150 -152 -203 -114 -73 -42 -69 -1308
-68 -624 0 -1144 3 -1155 5 -100 23 -172 61 -232 122 -40 41 -73 107 -75 148
-1 32 58 273 71 292 4 6 36 89 70 185 80 223 86 237 124 281 l32 36 1165 1
1165 0 37 -47z m-2382 -1744 c136 -58 219 -196 208 -340 -16 -196 -191 -334
-387 -305 -229 34 -353 287 -243 493 40 75 102 127 187 158 59 21 179 18 235
-6z m2625 -7 c64 -31 134 -101 165 -165 20 -41 24 -65 24 -140 1 -79 -3 -97
-28 -147 -95 -192 -327 -249 -504 -124 -46 32 -102 110 -121 166 -52 162 32
343 192 415 72 33 199 30 272 -5z m-894 -48 l29 -32 0 -173 c0 -191 -5 -208
-64 -231 -23 -9 -158 -12 -528 -12 -464 1 -497 2 -516 19 -38 35 -44 67 -40
240 3 148 5 167 23 187 11 12 29 26 40 30 11 4 246 7 523 6 l504 -1 29 -33z"/>
</g>
</svg>
