<?xml version="1.0" standalone="no"?>
<!DOCTYPE svg PUBLIC "-//W3C//DTD SVG 20010904//EN"
 "http://www.w3.org/TR/2001/REC-SVG-20010904/DTD/svg10.dtd">
<svg version="1.0" xmlns="http://www.w3.org/2000/svg"
 width="300.000000pt" height="300.000000pt" viewBox="0 0 300.000000 300.000000"
 preserveAspectRatio="xMidYMid meet">
<metadata>
Created by potrace 1.11, written by Peter Selinger 2001-2013
</metadata>
<g transform="translate(0.000000,300.000000) scale(0.100000,-0.100000)"
fill="#000000" stroke="none">
<path d="M0 2250 l0 -190 276 0 c226 0 278 -3 290 -14 12 -13 14 -96 12 -553
-3 -506 -4 -538 -20 -535 -10 2 -18 -2 -18 -8 0 -5 9 -10 19 -10 11 0 22 -6
25 -12 5 -10 7 -10 12 0 4 9 51 12 185 12 l179 0 0 560 0 560 269 0 c206 0
270 -3 274 -12 11 -33 16 13 19 195 l3 197 -762 0 -763 0 0 -190z"/>
<path d="M1140 1868 c-3 -83 2 -743 5 -746 2 -2 123 -3 269 -2 l266 1 10 -26
c6 -15 10 -96 10 -181 l0 -154 -91 0 -91 0 4 90 3 90 -195 0 -195 0 0 -190 0
-190 378 0 c207 0 379 0 382 0 4 0 8 1063 5 1310 0 16 -760 14 -760 -2z m560
-368 l0 -180 -84 0 c-67 0 -85 3 -90 16 -8 20 -8 308 0 328 5 13 23 16 90 16
l84 0 0 -180z"/>
<path d="M1540 1570 c0 -5 5 -10 10 -10 6 0 10 5 10 10 0 6 -4 10 -10 10 -5 0
-10 -4 -10 -10z"/>
<path d="M2810 1510 c0 -6 -128 -10 -365 -10 l-365 0 0 -660 0 -660 380 0
c209 0 380 3 380 8 0 4 1 175 3 380 l2 372 -276 0 -276 0 -7 31 c-3 17 -6 98
-6 180 l0 149 91 0 91 0 -3 -91 -4 -91 193 1 193 0 0 191 c0 104 0 195 -1 200
0 6 -7 10 -15 10 -8 0 -15 -4 -15 -10z m-406 -782 c5 -10 7 -10 12 0 3 6 14
12 25 12 18 0 19 -9 19 -180 l0 -180 -91 0 -90 0 2 180 3 180 57 0 c36 0 59
-5 63 -12z"/>
<path d="M2400 610 c0 -5 5 -10 10 -10 6 0 10 5 10 10 0 6 -4 10 -10 10 -5 0
-10 -4 -10 -10z"/>
<path d="M2420 430 c0 -5 5 -10 10 -10 6 0 10 5 10 10 0 6 -4 10 -10 10 -5 0
-10 -4 -10 -10z"/>
<path d="M2420 1250 c0 -5 5 -10 10 -10 6 0 10 5 10 10 0 6 -4 10 -10 10 -5 0
-10 -4 -10 -10z"/>
<path d="M1600 1090 c0 -5 5 -10 10 -10 6 0 10 5 10 10 0 6 -4 10 -10 10 -5 0
-10 -4 -10 -10z"/>
<path d="M1900 510 c0 -5 5 -10 10 -10 6 0 10 5 10 10 0 6 -4 10 -10 10 -5 0
-10 -4 -10 -10z"/>
<path d="M1860 450 c0 -5 5 -10 10 -10 6 0 10 5 10 10 0 6 -4 10 -10 10 -5 0
-10 -4 -10 -10z"/>
</g>
</svg>
